<svg id="Capa_1" data-name="Capa 1" xmlns="http://www.w3.org/2000/svg" viewBox="0 0 595.28 341.22"><defs><style>.cls-1{fill:#fff;}.cls-2{fill:#000100;}</style></defs><title>background-img-01</title><rect class="cls-1" x="-19.43" y="-25.45" width="624.64" height="378.26"/><path class="cls-2" d="M214,118.33a20.93,20.93,0,0,1,20.91-20.91H360.37a20.93,20.93,0,0,1,20.91,20.91V222.89a20.93,20.93,0,0,1-20.91,20.91H234.91A20.93,20.93,0,0,1,214,222.89V118.33Zm105.8,34.8a7.82,7.82,0,0,0-12.94,0l-28.43,41.69L269.77,184a7.82,7.82,0,0,0-12.22,0l-20.91,26.14a7.84,7.84,0,0,0,6.11,12.74H352.53A7.84,7.84,0,0,0,359,210.63l-39.21-57.51h0Zm-69.2-3.43A15.68,15.68,0,1,0,234.91,134,15.69,15.69,0,0,0,250.59,149.7Z"/></svg>